<svg width="48" height="49" viewBox="0 0 48 49" fill="none" xmlns="http://www.w3.org/2000/svg">
<path d="M43.2973 40.2492C40.4417 35.3124 36.041 31.7724 30.9054 30.0942C33.4457 28.582 35.4194 26.2776 36.5233 23.5351C37.6272 20.7926 37.8004 17.7635 37.0161 14.913C36.2319 12.0626 34.5337 9.54835 32.1822 7.75647C29.8308 5.9646 26.9561 4.99414 23.9998 4.99414C21.0434 4.99414 18.1688 5.9646 15.8173 7.75647C13.4659 9.54835 11.7676 12.0626 10.9834 14.913C10.1992 17.7635 10.3723 20.7926 11.4763 23.5351C12.5802 26.2776 14.5538 28.582 17.0942 30.0942C11.9585 31.7705 7.5579 35.3105 4.70228 40.2492C4.59755 40.42 4.52809 40.61 4.49799 40.808C4.46789 41.0061 4.47776 41.2081 4.52701 41.4023C4.57626 41.5964 4.6639 41.7788 4.78476 41.9385C4.90562 42.0982 5.05725 42.2321 5.2307 42.3323C5.40415 42.4325 5.59591 42.497 5.79466 42.5218C5.99342 42.5467 6.19515 42.5315 6.38794 42.4772C6.58073 42.4228 6.76069 42.3304 6.91719 42.2054C7.07369 42.0804 7.20356 41.9253 7.29915 41.7492C10.8317 35.6442 17.0754 31.9992 23.9998 31.9992C30.9242 31.9992 37.1679 35.6442 40.7004 41.7492C40.796 41.9253 40.9259 42.0804 41.0824 42.2054C41.2389 42.3304 41.4188 42.4228 41.6116 42.4772C41.8044 42.5315 42.0061 42.5467 42.2049 42.5218C42.4036 42.497 42.5954 42.4325 42.7689 42.3323C42.9423 42.2321 43.0939 42.0982 43.2148 41.9385C43.3356 41.7788 43.4233 41.5964 43.4725 41.4023C43.5218 41.2081 43.5317 41.0061 43.5016 40.808C43.4715 40.61 43.402 40.42 43.2973 40.2492ZM13.4998 18.4992C13.4998 16.4225 14.1156 14.3925 15.2693 12.6658C16.4231 10.939 18.063 9.59323 19.9816 8.79851C21.9002 8.00379 24.0114 7.79585 26.0482 8.201C28.085 8.60614 29.9559 9.60617 31.4244 11.0746C32.8928 12.5431 33.8929 14.414 34.298 16.4508C34.7032 18.4876 34.4952 20.5988 33.7005 22.5174C32.9058 24.436 31.56 26.0759 29.8333 27.2297C28.1065 28.3834 26.0765 28.9992 23.9998 28.9992C21.2159 28.9963 18.5469 27.8891 16.5784 25.9206C14.61 23.9521 13.5028 21.2831 13.4998 18.4992Z" fill="#C7EF00"/>
</svg>
